<svg id="Capa_1" enable-background="new 0 0 512 512" height="512" viewBox="0 0 512 512" width="512" xmlns="http://www.w3.org/2000/svg"><g id="Flat_7_"><g><path d="m416 120h-304c-4.418 0-8 3.582-8 8v120c0 13.287 16.64 23.249 50.872 30.456 29.235 6.154 67.991 9.544 109.128 9.544s79.894-3.39 109.128-9.544c34.232-7.207 50.872-17.169 50.872-30.456v-120c0-4.418-3.582-8-8-8z" fill="#524aff"/><path d="m112 120c-4.418 0-8 3.582-8 8v120c0 13.287 16.64 23.249 50.872 30.456 9.104 1.917 19.133 3.565 29.868 4.926v-163.382z" fill="#3b35b8"/><path d="m491.369 104.744-224-104c-2.137-.992-4.602-.992-6.738 0l-224 104c-2.824 1.311-4.631 4.142-4.631 7.256s1.807 5.945 4.631 7.256l224 104c1.068.496 2.219.744 3.369.744s2.301-.248 3.369-.744l224-104c2.824-1.311 4.631-4.142 4.631-7.256s-1.806-5.945-4.631-7.256z" fill="#9792ff"/><path d="m154 94c-9.399-9.807-17.125-20.951-23.253-32.953l-94.116 43.697c-2.824 1.311-4.631 4.142-4.631 7.256s1.807 5.945 4.631 7.256l224 104c1.068.496 2.219.744 3.369.744s2.301-.248 3.369-.744l110.457-51.284c-44.847-.316-90.774-12.334-132.826-25.972-33-11-65-26-91-52z" fill="#746eff"/><g><path d="m40 312c-4.418 0-8-3.582-8-8v-192c0-4.418 3.582-8 8-8h216c4.418 0 8 3.582 8 8s-3.582 8-8 8h-208v184c0 4.418-3.581 8-8 8z" fill="#3b35b8"/><g><path d="m63.961 303.204-8-80c-.409-4.09-3.851-7.204-7.961-7.204h-16c-4.11 0-7.551 3.114-7.96 7.204l-8 80c-.225 2.249.512 4.488 2.029 6.164s3.671 2.632 5.931 2.632h32c2.26 0 4.415-.956 5.932-2.632s2.253-3.915 2.029-6.164z" fill="#3b35b8"/><circle cx="40" cy="208" fill="#524aff" r="24"/></g></g></g><g><g><path d="m408 336c-48 0-96 16-160 16s-120-16-160-16c-30.928 0-56 25.072-56 56s25.072 56 56 56c48 0 96-24 160-24s120 16 160 16c24 0 56-17.072 56-48s-25.072-56-56-56z" fill="#fde09b"/><circle cx="88" cy="392" fill="#fcd069" r="56"/><circle cx="88" cy="392" fill="#fbc137" r="24"/><g><path d="m490.676 392h-310.856c-2.057 0-3.797 1.56-3.976 3.609-3.252 37.356-63.844 52.391-87.844 52.391 80 0 88-16 176-16 58.03 0 98.004 15.608 144 15.608 40 0 83.108-17.676 86.664-51.204.25-2.355-1.62-4.404-3.988-4.404z" fill="#feefcd"/></g><g><path d="m428.853 426.755c-45.996 0-85.97-15.608-144-15.608-65.539 0-86.71 8.874-126.293 13.404-20.595 16.409-54.14 23.449-70.56 23.449 80 0 88-16 176-16 58.03 0 98.004 15.608 144 15.608 33.57 0 69.323-12.452 82.054-36.273-16.734 10.181-39.427 15.42-61.201 15.42z" fill="#fde8b4"/></g></g><g><path d="m303.895 432h-48c-4.418 0-8 3.582-8 8v64c0 2.572 1.236 4.986 3.322 6.49 2.087 1.504 4.769 1.914 7.208 1.1l21.47-15.59 21.47 15.589c.827.275 1.681.411 2.529.411 1.658 0 3.299-.516 4.679-1.51 2.086-1.503 3.322-3.918 3.322-6.49v-64c0-4.418-3.582-8-8-8z" fill="#e04d22"/><circle cx="279.895" cy="392" fill="#e7714e" r="64"/><circle cx="279.895" cy="392" fill="#edeaee" r="32"/></g></g></g></svg>